<?xml version="1.0" standalone="no"?><!DOCTYPE svg PUBLIC "-//W3C//DTD SVG 1.1//EN" "http://www.w3.org/Graphics/SVG/1.1/DTD/svg11.dtd"><svg t="1610337944692" class="icon" viewBox="0 0 1024 1024" version="1.1" xmlns="http://www.w3.org/2000/svg" p-id="1518" xmlns:xlink="http://www.w3.org/1999/xlink" width="200" height="200"><defs><style type="text/css"></style></defs><path d="M45.354538 496.418793a15.994095 15.994095 0 0 0-12.075541 22.071851c1.663386 3.902559 42.208416 95.420769 157.046016 95.420768 15.81816 0 32.5-1.967274 49.581693-5.533956v-143.834894c-0.879675 0-1.727362-0.255906-2.623031-0.111958l-191.929137 31.988189zM989.661882 504.511805a16.026083 16.026083 0 0 0-11.403789-8.109006l-191.929136-31.98819c-0.895669-0.143947-1.743356 0.111959-2.623032 0.111959v143.834894c17.065699 3.566683 33.74754 5.533957 49.581694 5.533956 114.853594 0 155.38263-91.51821 157.046015-95.420769a15.994095 15.994095 0 0 0-0.671752-13.962844z" fill="#434854" p-id="1519"></path><path d="M831.688209 544.17716c0-176.67077-143.211124-319.881894-319.881893-319.881894s-319.881894 143.211124-319.881894 319.881894c0 105.73696 51.532973 199.206449 130.591783 257.456942A192.792817 192.792817 0 0 0 319.87718 832.070864c0 106.00886 85.920277 191.929136 191.929136 191.929136s191.929136-85.920277 191.929136-191.929136c0-10.380167-1.05561-20.504429-2.639026-30.436762 79.05881-58.250493 130.591783-151.719982 130.591783-257.456942z" fill="#E29460" p-id="1520"></path><path d="M511.806316 832.070864m-127.952758 0a127.952757 127.952757 0 1 0 255.905515 0 127.952757 127.952757 0 1 0-255.905515 0Z" fill="#EF4D4D" p-id="1521"></path><path d="M388.747751 563.705949a16.697835 16.697835 0 0 0 23.575296 23.59129 33.379676 33.379676 0 0 1 47.166585 0 16.649853 16.649853 0 1 0 23.575296-23.59129 66.695375 66.695375 0 0 0-94.317177 0zM634.86488 563.705949a66.695375 66.695375 0 0 0-94.301182 0 16.697835 16.697835 0 0 0 23.575295 23.59129 33.379676 33.379676 0 0 1 47.166586 0 16.649853 16.649853 0 1 0 23.559301-23.59129z" fill="#434854" p-id="1522"></path><path d="M511.806316 736.106296a15.994095 15.994095 0 1 0 0 31.988189 63.976379 63.976379 0 0 1 63.976378 63.976379 15.994095 15.994095 0 1 0 31.98819 0 95.964568 95.964568 0 0 0-95.964568-95.964568zM511.806316 288.271645c111.222934 0 212.17766 43.743849 286.790111 114.885582C746.439685 297.292314 637.791799 224.295266 511.806316 224.295266s-234.633369 72.997048-286.790112 178.861961C299.628656 332.015494 400.583381 288.271645 511.806316 288.271645z" fill="#FFFFFF" opacity=".15" p-id="1523"></path><path d="M283.458626 238.609981c59.050198-78.515011 24.742864-151.192177-4.942175-180.877217l-47.982284-47.982284a31.988189 31.988189 0 1 0-45.2313 45.2313l47.982284 47.982284c4.350394 4.366388 36.466536 39.393455 4.302411 89.758859l-150.984253-150.984254a31.988189 31.988189 0 1 0-45.2313 45.2313l150.952265 150.952266c-48.23819 30.676674-82.689469 2.479085-89.726871-4.270424l-47.982284-47.982284a31.988189 31.988189 0 1 0-45.2313 45.2313l47.982285 47.982284c17.833416 17.833416 51.197097 37.474164 92.03002 37.474164 27.10999 0 57.546753-8.924705 88.879184-32.5l43.008121 43.00812c6.253691 6.253691 14.426673 9.372539 22.61565 9.37254s16.361959-3.118848 22.61565-9.37254a31.988189 31.988189 0 0 0 0-45.2313l-43.056103-43.024114zM1014.244806 185.685521a31.988189 31.988189 0 0 0-45.2313 0l-47.982284 47.982284c-4.366388 4.350394-39.393455 36.48253-89.774853 4.318406l151.000248-151.000248a31.988189 31.988189 0 1 0-45.2313-45.2313l-150.952266 150.952266c-30.708662-48.23819-2.479085-82.673475 4.270424-89.726871l47.982284-47.982284A31.988189 31.988189 0 1 0 793.094459 9.766474l-47.982284 47.982284c-29.669046 29.669046-63.992373 102.346212-4.942175 180.877217l-43.040109 43.040109a31.988189 31.988189 0 1 0 45.231299 45.231299l43.008121-43.00812c31.332431 23.59129 61.7532 32.5 88.879184 32.5 40.832924 0 74.196605-19.640748 92.030021-37.474164l47.982284-47.982284c12.475394-12.507382 12.475394-32.755906-0.015994-45.247294z" fill="#434854" p-id="1524"></path></svg>