<?xml version="1.0" standalone="no"?><!DOCTYPE svg PUBLIC "-//W3C//DTD SVG 1.1//EN" "http://www.w3.org/Graphics/SVG/1.1/DTD/svg11.dtd"><svg t="1610337927629" class="icon" viewBox="0 0 1024 1024" version="1.1" xmlns="http://www.w3.org/2000/svg" p-id="1212" xmlns:xlink="http://www.w3.org/1999/xlink" width="200" height="200"><defs><style type="text/css"></style></defs><path d="M512.016 672m-352 0a352 352 0 1 0 704 0 352 352 0 1 0-704 0Z" fill="#DAE2E5" p-id="1213"></path><path d="M512.016 224m-224 0a224 224 0 1 0 448 0 224 224 0 1 0-448 0Z" fill="#DAE2E5" p-id="1214"></path><path d="M992.016 288h-64v-64a32 32 0 1 0-64 0v82.752l-110.032 110.032a352.48 352.48 0 0 1 42.288 48.224l112.992-112.992h82.752a32 32 0 1 0 0-64.016zM160.016 224a32 32 0 1 0-64 0v64h-64a32 32 0 1 0 0 64h82.752l112.992 112.992a352.48 352.48 0 0 1 42.288-48.224l-110.032-110.016V224z" fill="#E29460" p-id="1215"></path><path d="M512.016 576m-32 0a32 32 0 1 0 64 0 32 32 0 1 0-64 0Z" opacity=".1" p-id="1216"></path><path d="M512.016 704m-32 0a32 32 0 1 0 64 0 32 32 0 1 0-64 0Z" opacity=".1" p-id="1217"></path><path d="M512.016 832m-32 0a32 32 0 1 0 64 0 32 32 0 1 0-64 0Z" opacity=".1" p-id="1218"></path><path d="M576.016 160m-32 0a32 32 0 1 0 64 0 32 32 0 1 0-64 0Z" fill="#434854" p-id="1219"></path><path d="M448.016 160m-32 0a32 32 0 1 0 64 0 32 32 0 1 0-64 0Z" fill="#434854" p-id="1220"></path><path d="M685.328 365.84C644.272 416 581.888 448 512.016 448s-132.256-32-173.312-82.16c-9.344 5.312-18.432 10.976-27.216 17.056C358.384 442 430.672 480 512.016 480s153.632-38 200.528-97.088a357.92 357.92 0 0 0-27.216-17.072z" opacity=".1" p-id="1221"></path><path d="M534.736 293.632l-45.248 45.248a32 32 0 0 1-45.264 0 31.808 31.808 0 0 1-8.24-14.624 31.84 31.84 0 0 0 8.24 30.624 32 32 0 0 0 45.264 0l45.248-45.248a31.84 31.84 0 0 0 8.24-30.624 31.6 31.6 0 0 1-8.24 14.624z" opacity=".1" p-id="1222"></path><path d="M489.408 339.872a32 32 0 1 1-45.264-45.248l45.248-45.248a31.984 31.984 0 1 1 45.264 45.248l-45.248 45.248z" fill="#FC821F" p-id="1223"></path><path d="M512.016 896c-134.224 0-255.408-55.216-342.528-144 36.288 155.776 175.68 272 342.528 272s306.256-116.224 342.528-272c-87.12 88.784-208.304 144-342.528 144z" opacity=".05" p-id="1224"></path></svg>